<svg xmlns="http://www.w3.org/2000/svg" width="40" height="40" fill="none"><rect id="backgroundrect" width="100%" height="100%" x="0" y="0" fill="none" stroke="none"/>

<g class="currentLayer" style=""><title>Layer 1</title><path d="M25.248120307922363,20.751679692077637 C25.248120307922363,22.342979692077638 24.616020307922362,23.869079692077637 23.490720307922363,24.994279692077637 C22.365520307922363,26.119579692077636 20.839420307922364,26.751679692077637 19.248120307922363,26.751679692077637 C17.656820307922363,26.751679692077637 16.130720307922363,26.119579692077636 15.005520307922364,24.994279692077637 C13.880220307922363,23.869079692077637 13.248120307922363,22.342979692077638 13.248120307922363,20.751679692077637 C13.248120307922363,20.40967969207764 13.284120307922363,20.075679692077635 13.346120307922364,19.751679692077637 H11.248120307922363 V27.745679692077637 C11.248120307922363,28.301679692077638 11.698120307922363,28.751679692077637 12.254120307922364,28.751679692077637 H26.244120307922362 C26.510620307922363,28.75117969207764 26.765920307922364,28.644979692077637 26.954220307922363,28.456279692077636 C27.142420307922364,28.267679692077635 27.248120307922363,28.012179692077638 27.248120307922363,27.745679692077637 V19.751679692077637 H25.150120307922364 C25.212120307922362,20.075679692077635 25.248120307922363,20.40967969207764 25.248120307922363,20.751679692077637 zM19.248120307922363,24.751679692077637 C19.773520307922364,24.751579692077637 20.293820307922363,24.647979692077637 20.779120307922362,24.446779692077637 C21.264520307922364,24.245579692077637 21.705520307922363,23.950779692077635 22.076920307922364,23.579079692077638 C22.448420307922362,23.207479692077637 22.743020307922365,22.76637969207764 22.94392030792236,22.280879692077637 C23.144920307922362,21.79537969207764 23.248220307922363,21.275079692077636 23.248120307922363,20.74967969207764 C23.248020307922364,20.224279692077637 23.144320307922364,19.703979692077638 22.943220307922363,19.218679692077636 C22.742020307922363,18.733279692077637 22.447120307922365,18.292279692077635 22.075520307922364,17.920879692077637 C21.703920307922363,17.549379692077636 21.262820307922365,17.254779692077637 20.777320307922363,17.053879692077636 C20.291820307922364,16.852879692077636 19.771520307922362,16.74957969207764 19.246120307922364,16.749679692077635 C18.185020307922365,16.749979692077638 17.167420307922363,17.171779692077635 16.417320307922363,17.922279692077637 C15.667120307922364,18.672779692077636 15.245820307922363,19.690579692077637 15.246120307922363,20.751679692077637 C15.246420307922364,21.812779692077637 15.668120307922365,22.830379692077635 16.418720307922364,23.58047969207764 C17.169220307922362,24.330679692077638 18.187020307922364,24.751979692077636 19.248120307922363,24.751679692077637 zM24.048120307922364,16.551679692077634 H26.446120307922364 C26.605420307922362,16.551679692077634 26.758220307922365,16.488579692077636 26.871120307922364,16.37607969207764 C26.983920307922364,16.263579692077634 27.04762030792236,16.110979692077635 27.048120307922364,15.951679692077636 V13.553679692077637 C27.048120307922364,13.393979692077636 26.984720307922363,13.240879692077637 26.871820307922363,13.127979692077636 C26.758920307922363,13.015079692077636 26.605820307922365,12.951679692077636 26.446120307922364,12.951679692077636 H24.048120307922364 C23.888420307922363,12.951679692077636 23.735320307922365,13.015079692077636 23.622420307922365,13.127979692077636 C23.50952030792236,13.240879692077637 23.446120307922364,13.393979692077636 23.446120307922364,13.553679692077637 V15.951679692077636 C23.448120307922363,16.28167969207764 23.718120307922362,16.551679692077634 24.048120307922364,16.551679692077634 zM19.248120307922363,1.5516846920776368 C14.155920307922363,1.5516846920776368 9.272320307922364,3.5745396920776367 5.671660307922363,7.175229692077637 C2.0709603079223635,10.775979692077637 0.048114307922363375,15.659479692077637 0.048114307922363375,20.751679692077637 C0.048114307922363375,25.843879692077635 2.0709603079223635,30.727479692077637 5.671660307922363,34.32817969207764 C9.272320307922364,37.928879692077636 14.155920307922363,39.95167969207764 19.248120307922363,39.95167969207764 C21.769520307922363,39.95167969207764 24.266220307922364,39.45507969207764 26.595620307922363,38.49017969207764 C28.925120307922363,37.52527969207764 31.041720307922365,36.110979692077635 32.82452030792236,34.32817969207764 C34.60742030792236,32.545279692077635 36.021720307922365,30.428679692077637 36.986620307922365,28.099179692077637 C37.951520307922365,25.769779692077638 38.448120307922366,23.273079692077637 38.448120307922366,20.751679692077637 C38.448120307922366,18.230279692077637 37.951520307922365,15.733579692077637 36.986620307922365,13.404179692077637 C36.021720307922365,11.074679692077638 34.60742030792236,8.958119692077636 32.82452030792236,7.175229692077637 C31.041720307922365,5.392349692077637 28.925120307922363,3.9780896920776367 26.595620307922363,3.0131996920776367 C24.266220307922364,2.0483096920776367 21.769520307922363,1.5516846920776368 19.248120307922363,1.5516846920776368 zM29.248120307922363,28.529679692077636 C29.248120307922363,29.751679692077637 28.248120307922363,30.751679692077637 27.026120307922362,30.751679692077637 H11.470120307922363 C10.248120307922363,30.751679692077637 9.248110307922364,29.751679692077637 9.248110307922364,28.529679692077636 V12.973679692077637 C9.248110307922364,11.751679692077637 10.248120307922363,10.751679692077637 11.470120307922363,10.751679692077637 H27.026120307922362 C28.248120307922363,10.751679692077637 29.248120307922363,11.751679692077637 29.248120307922363,12.973679692077637 V28.529679692077636 z" fill="#f7941e" id="svg_1" class="" fill-opacity="1"/></g></svg>