<svg xmlns="http://www.w3.org/2000/svg" width="40" height="40" fill="none" style=""><rect id="backgroundrect" width="100%" height="100%" x="0" y="0" fill="none" stroke="none"/>

<g class="currentLayer" style=""><title>Layer 1</title><path d="M20.751879692077637,1.5516846920776368 C10.147869692077636,1.5516846920776368 1.5518676920776366,10.147689692077638 1.5518676920776366,20.751679692077637 C1.5518676920776366,31.355679692077636 10.147869692077636,39.95167969207764 20.751879692077637,39.95167969207764 C31.355879692077636,39.95167969207764 39.95187969207764,31.355679692077636 39.95187969207764,20.751679692077637 C39.95187969207764,10.147689692077638 31.355879692077636,1.5516846920776368 20.751879692077637,1.5516846920776368 zM25.29987969207764,14.819679692077637 H22.413879692077636 C22.071879692077637,14.819679692077637 21.691879692077638,15.269679692077636 21.691879692077638,15.867679692077637 V17.951679692077636 H25.301879692077637 L24.755879692077638,20.923679692077638 H21.691879692077638 V29.84567969207764 H18.285879692077636 V20.923679692077638 H15.195879692077638 V17.951679692077636 H18.285879692077636 V16.203679692077635 C18.285879692077636,13.695679692077636 20.025879692077638,11.657679692077636 22.413879692077636,11.657679692077636 H25.29987969207764 V14.819679692077637 z" fill="#f7941e" id="svg_1" class="" fill-opacity="1"/></g></svg>